<svg width="20" height="20" viewBox="0 0 20 20" fill="none" xmlns="http://www.w3.org/2000/svg">
<path d="M6.12819 10.1907C6.07701 10.2419 6.03938 10.3049 6.01838 10.3744L4.70588 14.7494C4.63632 14.9809 4.76801 15.2246 4.99944 15.2941C5.08126 15.3186 5.16876 15.3186 5.25057 15.2941L9.62557 13.9816C9.69513 13.9606 9.75813 13.923 9.80932 13.8718L16.9375 6.74362L13.2564 3.0625L6.12819 10.1907Z" fill="#F7F7F7"/>
<path d="M16.3718 0.565713C16.2008 0.395088 15.9238 0.395088 15.7532 0.565713L13.875 2.4439L17.5561 6.12503L19.4343 4.24684C19.6049 4.07621 19.6049 3.79928 19.4343 3.62821L16.3718 0.565713Z" fill="#F7F7F7"/>
<path d="M16.5 11.8125C16.2581 11.8125 16.0625 12.0085 16.0625 12.25V17.5C16.0625 18.2236 15.4736 18.8125 14.75 18.8125H2.5C1.77637 18.8125 1.1875 18.2236 1.1875 17.5V5.25C1.1875 4.52637 1.77637 3.9375 2.5 3.9375H7.75C7.99194 3.9375 8.1875 3.7415 8.1875 3.5C8.1875 3.2585 7.99194 3.0625 7.75 3.0625H2.5C1.29381 3.0625 0.3125 4.04381 0.3125 5.25V17.5C0.3125 18.7062 1.29381 19.6875 2.5 19.6875H14.75C15.9562 19.6875 16.9375 18.7062 16.9375 17.5V12.25C16.9375 12.0085 16.7419 11.8125 16.5 11.8125Z" fill="#F7F7F7"/>
</svg>
