<svg width="958" height="1024" viewBox="0 0 958 1024" fill="none" xmlns="http://www.w3.org/2000/svg">
<path d="M353.887 1024C612.647 1024 822.413 1010.07 822.413 992.886C822.413 975.702 612.647 961.772 353.887 961.772C95.127 961.772 -114.639 975.702 -114.639 992.886C-114.639 1010.07 95.127 1024 353.887 1024Z" fill="#F5F5F5"/>
<path d="M593.722 298.025L569.751 287.031C569.751 287.031 538.119 352.638 529.058 355.964C516.734 360.472 491.216 373.005 476.089 375.204C474.035 377.953 470.676 386.501 470.99 389.606C491.313 397.33 535.969 387.078 545.538 378.997C567.31 360.664 593.722 298.025 593.722 298.025Z" fill="#E58A7B"/>
<path d="M601.09 283.099C605.561 301.871 581.348 339.636 581.348 339.636L549.62 319.407C549.62 319.407 555.564 303.878 562.813 288.074C574.437 262.54 595.991 261.688 601.09 283.099Z" fill="#6674BB"/>
<path opacity="0.2" d="M601.09 283.099C605.561 301.871 581.348 339.636 581.348 339.636L549.62 319.407C549.62 319.407 555.564 303.878 562.813 288.074C574.437 262.54 595.991 261.688 601.09 283.099Z" fill="black"/>
<path opacity="0.2" d="M562.21 327.488L574.704 335.459L576.903 291.839C569.629 298.189 564.506 317.318 562.21 327.488Z" fill="black"/>
<path d="M580.212 268.972C580.212 268.972 555.516 331.474 569.918 447.848H667.229C668.775 430.862 663.652 347.965 682.187 267.928C671.512 265.555 660.711 263.985 649.855 263.228C636.084 262.32 622.279 262.32 608.509 263.228C598.963 264.33 589.504 266.25 580.212 268.972Z" fill="#6674BB"/>
<path opacity="0.2" d="M580.212 268.972C580.212 268.972 555.516 331.474 569.918 447.848H667.229C668.775 430.862 663.652 347.965 682.187 267.928C671.512 265.555 660.711 263.985 649.855 263.228C636.084 262.32 622.279 262.32 608.509 263.228C598.963 264.33 589.504 266.25 580.212 268.972Z" fill="black"/>
<g style="mix-blend-mode:multiply">
<path d="M557.643 995.36C557.498 998.328 594.397 1000.72 640.044 1000.72C685.69 1000.72 722.855 998.328 723 995.36C723.145 992.391 686.27 990.027 640.599 990.027C594.928 990.027 557.812 992.419 557.643 995.36Z" fill="#E8ECF1"/>
</g>
<path d="M622.6 917.363L605.34 924.963L620.207 968.647L637.467 961.048L622.6 917.363Z" fill="#E58A7B"/>
<path d="M699.562 974.222H681.366L674.696 926.314H692.892L699.562 974.222Z" fill="#E58A7B"/>
<path d="M680.109 971.83H700.552C700.907 971.832 701.25 971.976 701.52 972.238C701.79 972.499 701.969 972.861 702.026 973.26L704.66 991.647C704.716 992.109 704.683 992.578 704.565 993.024C704.447 993.47 704.246 993.881 703.975 994.231C703.705 994.58 703.371 994.859 702.997 995.049C702.624 995.239 702.218 995.335 701.809 995.33C694.68 995.193 691.249 994.698 682.26 994.698C676.726 994.698 665.345 995.358 657.66 995.358C649.976 995.358 649.469 986.783 652.634 985.985C666.843 982.495 672.352 977.74 677.089 973.122C677.924 972.288 678.998 971.829 680.109 971.83Z" fill="#263238"/>
<path d="M619.698 964.739L639.03 958.308C639.375 958.197 639.743 958.224 640.073 958.384C640.402 958.544 640.674 958.827 640.842 959.187L648.092 975.679C648.26 976.097 648.346 976.552 648.344 977.012C648.341 977.472 648.251 977.926 648.078 978.343C647.906 978.759 647.655 979.127 647.345 979.422C647.034 979.716 646.67 979.93 646.279 980.049C639.247 982.248 634.535 983.594 625.739 986.508C619.674 988.514 613.488 991.785 607.495 993.956C603.339 995.468 593.576 995.523 588.526 995.523C581.059 995.523 579.392 986.563 582.606 986.151C590.701 985.134 591.788 985.601 596.259 983.045C603.573 979.408 610.203 974.2 615.784 967.708C616.836 966.343 618.186 965.32 619.698 964.739Z" fill="#263238"/>
<path d="M479.134 375.093L459.126 365.556L450.885 390.787C459.086 392.208 467.429 392.208 475.63 390.787L479.134 375.093Z" fill="#E58A7B"/>
<path d="M444.239 364.895L443.708 381.662L450.885 390.732L459.125 365.5L444.239 364.895Z" fill="#E58A7B"/>
<path d="M624.966 921.072L607.653 928.675L615.321 951.265L632.634 943.662L624.966 921.072Z" fill="#CF6F64"/>
<path d="M692.892 926.314H674.696L678.152 951.024H696.348L692.892 926.314Z" fill="#CF6F64"/>
<path opacity="0.2" d="M566.827 416.377C567.189 421.352 567.6 426.436 568.132 431.659L640.48 404.943C651.779 401.134 661.598 393.058 668.318 382.047C668.608 374.709 668.97 366.985 669.526 358.932C669.768 355.029 670.058 351.016 670.372 346.948C670.686 342.88 671.121 338.373 671.58 334.03L566.827 416.377Z" fill="black"/>
<path d="M590.457 326.224L588.041 325.895C589.467 312.152 598.48 301.323 607.977 301.597V304.346C599.664 304.154 591.738 313.911 590.457 326.224Z" fill="white"/>
<path d="M603.338 351.594H602.927V348.846C611.239 349.203 619.045 339.336 620.325 327.05L622.742 327.379C621.461 340.82 612.738 351.594 603.338 351.594Z" fill="white"/>
<path d="M648.502 210.262C645.095 225.406 641.084 253.139 649.855 263.227C649.855 263.227 643.718 278.591 618.997 278.591C596.403 278.591 608.51 263.227 608.51 263.227C623.54 259.214 623.806 246.735 621.825 234.916L648.502 210.262Z" fill="#E58A7B"/>
<path d="M637.628 220.322L621.849 234.917C622.338 237.633 622.621 240.392 622.695 243.163C627.31 248.385 636.565 235.164 637.507 228.403C637.986 225.741 638.027 223.001 637.628 220.322Z" fill="#CF6F64"/>
<path d="M594.711 210.07C595.809 212.235 597.288 214.118 599.055 215.603C600.822 217.088 602.839 218.143 604.981 218.701C610.78 220.157 613.68 214.083 612.085 207.981C610.659 202.484 605.899 195.09 600.003 196.355C598.74 196.651 597.558 197.287 596.555 198.209C595.553 199.132 594.759 200.314 594.241 201.657C593.723 203 593.495 204.465 593.577 205.928C593.658 207.392 594.047 208.812 594.711 210.07Z" fill="#CF6F64"/>
<path d="M604.305 161.614C595.268 166.314 592.078 207.158 603.435 213.204C614.793 219.251 621.414 152.681 604.305 161.614Z" fill="#263238"/>
<path d="M651.257 187.478C649.082 207.982 648.841 220.048 639.175 230.548C636.18 234.032 632.396 236.507 628.242 237.7C624.088 238.892 619.726 238.756 615.635 237.305C611.545 235.855 607.887 233.147 605.065 229.481C602.242 225.815 600.366 221.333 599.642 216.53C596.718 198.115 600.753 167.689 618.828 159.525C622.626 157.62 626.803 156.905 630.925 157.454C635.048 158.003 638.966 159.796 642.275 162.647C645.583 165.499 648.16 169.305 649.74 173.671C651.319 178.037 651.843 182.804 651.257 187.478Z" fill="#E58A7B"/>
<path d="M621.559 172.224C634.946 168.348 644.782 165.71 641.253 178.38C636.59 195.311 630.984 211.693 638.499 212.435C643.09 212.902 663.388 203.117 660.803 193.195C658.555 184.565 668.052 182.201 669.743 177.831C676.002 161.999 658.096 164.088 661.286 154.468C664.476 144.848 646.787 129.346 637.121 137.07C621.39 149.548 594.398 149.356 608.583 128.824C618.756 114.174 600.609 117.17 600.609 117.17C600.609 117.17 611.579 124.564 593.118 135.998C573.593 148.201 591.499 180.992 621.559 172.224Z" fill="#263238"/>
<path d="M658.36 210.07C655.718 214.42 651.747 217.496 647.221 218.701C641.252 220.157 638.956 214.083 641.204 207.981C643.209 202.484 648.719 195.09 654.422 196.355C660.124 197.619 661.429 204.683 658.36 210.07Z" fill="#E58A7B"/>
<path d="M569.919 447.848C569.919 447.848 553.584 614.135 552.303 677.242C550.998 742.877 607.664 947.672 607.664 947.672L636.661 933.929C636.661 933.929 602.831 746.808 607.664 682.354C612.787 612.074 633.955 447.958 633.955 447.958L569.919 447.848Z" fill="#6674BB"/>
<path opacity="0.2" d="M610.514 493.501C597.49 524.23 606.261 585.001 613.318 621.007C616 595.583 619.19 567.987 622.21 542.453C621.92 503.204 619.238 472.887 610.514 493.501Z" fill="black"/>
<path d="M635.38 923.044C635.525 923.044 638.811 933.543 638.811 933.543L605.367 949.54L600.1 938.381L635.38 923.044Z" fill="#6674BB"/>
<path d="M604.449 447.848C604.449 447.848 616.942 605.999 625.206 665.231C634.292 730.124 669.911 946.242 669.911 946.242H703.234C703.234 946.242 683.274 735.374 679.504 671.112C675.396 601.409 667.228 447.848 667.228 447.848H604.449Z" fill="#6674BB"/>
<path d="M703.743 936.376C703.888 936.376 704.855 946.958 704.855 946.958H668.221L665.611 934.809L703.743 936.376Z" fill="#6674BB"/>
<path opacity="0.2" d="M690.984 923.842C690.908 923.843 690.835 923.813 690.777 923.758C690.72 923.702 690.681 923.625 690.67 923.54C690.476 921.616 672.474 731.141 669.091 673.422C665.418 610.81 658.023 471.926 657.951 470.524C657.948 470.478 657.953 470.432 657.966 470.389C657.979 470.346 658 470.306 658.027 470.273C658.054 470.239 658.087 470.212 658.124 470.194C658.161 470.176 658.201 470.166 658.241 470.167C658.32 470.166 658.397 470.2 658.455 470.261C658.513 470.322 658.549 470.406 658.555 470.496C658.555 471.898 666.022 610.672 669.695 673.394C673.078 731.114 691.081 921.451 691.25 923.512C691.257 923.558 691.255 923.605 691.245 923.649C691.235 923.694 691.217 923.736 691.192 923.772C691.167 923.808 691.135 923.838 691.1 923.86C691.064 923.881 691.024 923.894 690.984 923.897V923.842Z" fill="black"/>
<path d="M623.612 193.195C623.612 194.872 622.694 196.218 621.728 196.218C620.761 196.218 620.06 194.872 620.157 193.195C620.254 191.518 621.075 190.172 622.042 190.172C623.008 190.172 623.709 191.546 623.612 193.195Z" fill="#263238"/>
<path d="M607.036 193.195C607.036 194.872 606.094 196.218 605.151 196.218C604.209 196.218 603.484 194.872 603.557 193.195C603.629 191.518 604.499 190.172 605.465 190.172C606.432 190.172 607.133 191.546 607.036 193.195Z" fill="#263238"/>
<path d="M612.255 194.045C610.238 199.165 607.638 203.961 604.522 208.31C606.938 211.059 611.457 209.795 611.457 209.795L612.255 194.045Z" fill="#DF5753"/>
<path d="M612.689 216.805C612.633 216.805 612.578 216.792 612.526 216.767C612.475 216.742 612.428 216.705 612.39 216.659C612.351 216.612 612.322 216.557 612.303 216.497C612.283 216.438 612.275 216.374 612.279 216.31C612.285 216.177 612.336 216.051 612.421 215.959C612.507 215.867 612.62 215.815 612.738 215.815C614.586 215.83 616.413 215.373 618.086 214.479C619.759 213.585 621.234 212.276 622.403 210.648C622.487 210.565 622.594 210.519 622.706 210.519C622.817 210.519 622.924 210.565 623.008 210.648C623.086 210.74 623.13 210.864 623.13 210.992C623.13 211.12 623.086 211.243 623.008 211.335C621.756 213.065 620.179 214.455 618.394 215.401C616.608 216.348 614.659 216.827 612.689 216.805Z" fill="#263238"/>
<path d="M626.56 188.138C626.444 188.205 626.316 188.241 626.185 188.241C626.055 188.241 625.927 188.205 625.811 188.138C624.907 187.473 623.878 187.06 622.808 186.931C621.737 186.802 620.655 186.961 619.649 187.396C619.551 187.451 619.444 187.484 619.334 187.492C619.225 187.5 619.115 187.483 619.012 187.442C618.908 187.401 618.813 187.337 618.731 187.254C618.65 187.17 618.584 187.069 618.537 186.956C618.448 186.711 618.446 186.437 618.531 186.19C618.617 185.944 618.784 185.745 618.997 185.637C620.26 185.05 621.629 184.818 622.988 184.962C624.347 185.105 625.655 185.62 626.802 186.461C626.894 186.533 626.974 186.625 627.035 186.731C627.096 186.838 627.138 186.958 627.158 187.083C627.178 187.208 627.176 187.337 627.153 187.461C627.129 187.586 627.083 187.704 627.019 187.808C626.897 187.966 626.738 188.08 626.56 188.138Z" fill="#263238"/>
<path d="M600.632 182.641C600.503 182.605 600.386 182.529 600.293 182.421C600.213 182.331 600.149 182.225 600.106 182.107C600.062 181.989 600.04 181.862 600.04 181.734C600.04 181.606 600.062 181.479 600.106 181.361C600.149 181.243 600.213 181.136 600.293 181.047C601.219 179.865 602.373 178.943 603.664 178.352C604.955 177.761 606.348 177.516 607.736 177.639C607.847 177.658 607.954 177.703 608.049 177.772C608.144 177.84 608.226 177.929 608.289 178.035C608.353 178.141 608.396 178.26 608.418 178.386C608.439 178.511 608.437 178.641 608.413 178.765C608.361 179.02 608.229 179.244 608.042 179.396C607.855 179.548 607.626 179.617 607.398 179.59C606.3 179.511 605.2 179.718 604.183 180.194C603.166 180.67 602.257 181.404 601.526 182.339C601.416 182.478 601.274 182.579 601.116 182.633C600.958 182.686 600.791 182.689 600.632 182.641Z" fill="#263238"/>
<path d="M691.539 294.974L666.408 287.36C666.408 287.36 641.76 356.376 633.036 360.857C621.196 367.013 591.208 388.342 578.449 398.429C577.748 401.865 578.304 410.963 579.899 413.464C601.647 408.956 643.282 390.733 651.981 381.471C671.82 360.334 691.539 294.974 691.539 294.974Z" fill="#E58A7B"/>
<path d="M673.996 975.46C672.769 975.57 671.547 975.191 670.54 974.388C670.229 974.068 669.996 973.662 669.865 973.209C669.733 972.756 669.708 972.272 669.791 971.804C669.806 971.512 669.891 971.23 670.035 970.988C670.18 970.746 670.379 970.553 670.613 970.43C672.642 969.248 678.321 973.343 678.973 973.81C679.045 973.861 679.101 973.936 679.131 974.026C679.162 974.115 679.166 974.213 679.143 974.305C679.122 974.401 679.08 974.489 679.021 974.562C678.961 974.634 678.887 974.687 678.804 974.718C677.229 975.158 675.617 975.407 673.996 975.46ZM671.579 971.172C671.396 971.126 671.206 971.126 671.023 971.172C670.931 971.225 670.854 971.309 670.802 971.411C670.751 971.514 670.727 971.631 670.733 971.749C670.669 972.069 670.68 972.402 670.765 972.716C670.849 973.03 671.005 973.312 671.217 973.536C672.159 974.498 674.527 974.608 677.644 973.92C675.788 972.53 673.698 971.594 671.507 971.172H671.579Z" fill="#6674BB"/>
<path d="M678.684 974.718C678.621 974.741 678.553 974.741 678.49 974.718C676.678 973.564 673.271 969.029 673.778 966.72C673.854 966.354 674.036 966.028 674.294 965.793C674.553 965.559 674.873 965.43 675.204 965.428C675.528 965.379 675.858 965.41 676.171 965.519C676.484 965.628 676.772 965.813 677.016 966.06C679.022 968.012 679.143 974.004 679.143 974.306C679.154 974.396 679.139 974.488 679.1 974.568C679.061 974.648 678.999 974.71 678.925 974.746C678.844 974.764 678.76 974.755 678.684 974.718ZM675.446 966.335H675.276C674.721 966.335 674.648 966.692 674.624 966.83C674.334 968.177 676.485 971.612 678.273 973.234C678.265 970.912 677.632 968.649 676.46 966.747C676.18 966.469 675.818 966.322 675.446 966.335Z" fill="#6674BB"/>
<path d="M609.839 972.025C608.36 972.611 606.75 972.611 605.271 972.025C604.936 971.818 604.651 971.518 604.444 971.153C604.237 970.788 604.114 970.369 604.087 969.936C604.057 969.664 604.087 969.388 604.176 969.133C604.265 968.879 604.409 968.653 604.595 968.479C606.528 966.5 614.43 968.479 615.324 968.864C615.409 968.889 615.484 968.946 615.537 969.026C615.589 969.106 615.617 969.204 615.614 969.304C615.617 969.407 615.594 969.509 615.547 969.597C615.5 969.685 615.43 969.755 615.348 969.799C613.569 970.712 611.726 971.457 609.839 972.025ZM605.9 968.754C605.623 968.817 605.366 968.959 605.151 969.166C605.074 969.232 605.015 969.321 604.98 969.423C604.946 969.525 604.938 969.636 604.957 969.744C604.973 970.032 605.052 970.311 605.187 970.556C605.322 970.801 605.509 971.004 605.731 971.145C607.011 971.915 609.984 971.31 613.826 969.469C611.238 968.726 608.558 968.485 605.9 968.754Z" fill="#6674BB"/>
<path d="M615.275 969.798H615.082C612.665 969.304 607.832 966.143 607.687 963.779C607.687 963.229 607.905 962.46 609.065 962.02C609.456 961.861 609.872 961.794 610.288 961.822C610.703 961.851 611.109 961.974 611.481 962.185C614.091 963.642 615.468 968.919 615.541 969.166C615.558 969.249 615.556 969.336 615.534 969.418C615.513 969.5 615.474 969.574 615.42 969.634C615.384 969.701 615.334 969.757 615.275 969.798ZM609.548 962.845H609.306C608.557 963.147 608.557 963.504 608.557 963.614C608.557 965.043 612.061 967.655 614.502 968.534C613.94 966.327 612.75 964.393 611.119 963.037C610.633 962.756 610.075 962.688 609.548 962.845Z" fill="#6674BB"/>
<path d="M580.502 396.807L555.298 410L552.374 418.246L561.678 425.365C561.678 425.365 579.076 423.221 584.03 410.495L580.502 396.807Z" fill="#E58A7B"/>
<path d="M581.565 413.931C581.002 408.423 579.403 403.118 576.877 398.375L580.865 394.966C583.864 400.431 585.777 406.576 586.471 412.969L581.565 413.931Z" fill="#263238"/>
<path d="M585.867 400.71C586.4 401.664 586.662 402.78 586.617 403.909C586.572 405.037 586.223 406.122 585.616 407.017C585.01 407.911 584.176 408.572 583.228 408.908C582.279 409.244 581.263 409.24 580.317 408.896C579.372 408.552 578.542 407.885 577.941 406.986C577.34 406.086 576.997 404.998 576.96 403.869C576.922 402.741 577.191 401.626 577.729 400.677C578.268 399.728 579.051 398.991 579.971 398.566C581.004 397.968 582.203 397.857 583.307 398.259C584.411 398.66 585.331 399.541 585.867 400.71Z" fill="#263238"/>
<path d="M538.264 420.664L541.623 424.512L564.241 413.518L555.3 410L538.264 420.664Z" fill="#E58A7B"/>
<path opacity="0.2" d="M635.38 923.044C635.525 923.044 638.811 933.543 638.811 933.543L605.367 949.54L600.1 938.381L635.38 923.044Z" fill="black"/>
<path opacity="0.2" d="M703.743 936.376C703.888 936.376 704.855 946.958 704.855 946.958H668.221L665.611 934.809L703.743 936.376Z" fill="black"/>
<path d="M698.088 287.057C704.733 311.437 678.756 344.777 678.756 344.777L642.872 328.121C647.125 314.029 652.029 300.203 657.564 286.7C668.583 259.682 691.37 262.458 698.088 287.057Z" fill="#6674BB"/>
<path opacity="0.2" d="M698.088 287.057C704.733 311.437 678.756 344.777 678.756 344.777L642.872 328.121C647.125 314.029 652.029 300.203 657.564 286.7C668.583 259.682 691.37 262.458 698.088 287.057Z" fill="black"/>
<path d="M341.514 42.7942H326.072V45.6252H341.514V42.7942Z" fill="#6674BB"/>
<path d="M541.398 154.842L539.529 202.014L542.016 202.141L543.884 154.969L541.398 154.842Z" fill="#6674BB"/>
<path d="M536.595 55.4919H251.453L224.921 730.866H510.062L536.595 55.4919Z" fill="#6674BB"/>
<path opacity="0.56" d="M528.088 64.783H242.947L216.414 740.157H501.556L528.088 64.783Z" fill="#FAFAFA"/>
<path opacity="0.07" d="M519.582 74.0442H234.441L207.884 749.418H493.025L519.582 74.0442Z" fill="#6674BB"/>
<path d="M487.131 368.608H243.745L241.715 420.28H485.101L487.131 368.608Z" fill="white"/>
<path d="M377.591 330.896H245.218L244.324 354.011H376.697L377.591 330.896Z" fill="#6674BB"/>
<path d="M481.643 508.069H238.258L236.228 559.742H479.614L481.643 508.069Z" fill="white"/>
<path opacity="0.47" d="M437.011 629.527H273.345L270.904 691.452H434.571L437.011 629.527Z" fill="#6674BB"/>
<path d="M426.066 701.073H262.399C262.328 701.093 262.253 701.093 262.182 701.073C262.158 700.992 262.158 700.905 262.182 700.825L264.598 638.873C264.598 638.831 264.606 638.789 264.621 638.75C264.635 638.712 264.657 638.677 264.685 638.649C264.712 638.62 264.744 638.599 264.779 638.585C264.814 638.572 264.851 638.567 264.888 638.57H428.555C428.585 638.553 428.618 638.545 428.651 638.545C428.685 638.545 428.718 638.553 428.748 638.57C428.765 638.604 428.774 638.642 428.774 638.68C428.774 638.719 428.765 638.757 428.748 638.79L426.38 700.88C426.351 700.945 426.305 700.998 426.249 701.032C426.193 701.066 426.129 701.08 426.066 701.073ZM262.689 700.413H425.776L428.192 639.12H265.106L262.689 700.413Z" fill="white"/>
<path d="M349.006 470.358H239.734L238.84 493.5H348.088L349.006 470.358Z" fill="#6674BB"/>
<path d="M433.894 201.687C433.269 216.725 428.568 231.175 420.434 243.052C414.414 252.024 406.666 259.307 397.785 264.343C388.905 269.38 379.128 272.035 369.206 272.105C361.187 272.174 353.241 270.376 345.856 266.82C338.472 263.264 331.806 258.026 326.269 251.429C320.731 244.832 316.44 237.016 313.659 228.461C310.878 219.906 309.667 210.794 310.099 201.687C310.949 182.788 318.114 164.972 330.13 151.882C342.145 138.793 358.103 131.419 374.739 131.269C382.764 131.184 390.719 132.971 398.112 136.521C405.505 140.07 412.18 145.307 417.724 151.906C423.268 158.506 427.563 166.328 430.345 174.89C433.126 183.453 434.334 192.573 433.894 201.687Z" fill="white"/>
<path d="M439.719 146.001C439.561 149.999 438.311 153.843 436.142 156.995C434.538 159.378 432.476 161.312 430.114 162.651C427.752 163.989 425.152 164.696 422.514 164.718C419.957 164.736 417.435 164.041 415.169 162.695C412.903 161.349 410.961 159.392 409.513 156.995C407.596 153.756 406.647 149.901 406.807 146.001C407.04 140.983 408.948 136.256 412.141 132.783C415.333 129.31 419.57 127.353 423.988 127.311C426.119 127.288 428.231 127.763 430.195 128.705C432.159 129.647 433.932 131.036 435.406 132.787C436.88 134.538 438.023 136.614 438.765 138.886C439.506 141.159 439.831 143.58 439.719 146.001Z" fill="#6674BB"/>
<path d="M269.963 394.443C269.847 396.658 268.997 398.74 267.584 400.27C266.172 401.801 264.302 402.665 262.351 402.689C261.409 402.701 260.475 402.494 259.607 402.08C258.738 401.666 257.953 401.053 257.301 400.281C256.649 399.508 256.143 398.591 255.814 397.587C255.486 396.583 255.342 395.513 255.392 394.443C255.497 392.224 256.343 390.134 257.758 388.601C259.173 387.068 261.05 386.208 263.004 386.197C263.944 386.189 264.877 386.398 265.744 386.814C266.611 387.229 267.394 387.842 268.046 388.614C268.697 389.386 269.203 390.301 269.533 391.303C269.863 392.306 270.009 393.374 269.963 394.443Z" fill="#263238"/>
<path d="M302.538 394.443C302.428 396.66 301.579 398.747 300.166 400.278C298.752 401.81 296.879 402.671 294.926 402.689C293.987 402.698 293.055 402.488 292.189 402.072C291.324 401.656 290.542 401.043 289.892 400.271C289.242 399.498 288.739 398.583 288.412 397.581C288.085 396.578 287.942 395.511 287.991 394.443C288.096 392.229 288.939 390.143 290.349 388.61C291.758 387.078 293.629 386.215 295.579 386.198C296.521 386.185 297.455 386.392 298.323 386.806C299.192 387.22 299.977 387.833 300.629 388.606C301.281 389.378 301.787 390.295 302.116 391.299C302.444 392.303 302.588 393.373 302.538 394.443Z" fill="#263238"/>
<path d="M335.135 394.443C335.025 396.66 334.176 398.747 332.763 400.278C331.349 401.81 329.476 402.671 327.523 402.689C326.583 402.698 325.65 402.488 324.783 402.072C323.916 401.657 323.133 401.044 322.481 400.272C321.83 399.5 321.323 398.585 320.994 397.583C320.664 396.58 320.518 395.512 320.564 394.443C320.674 392.226 321.523 390.14 322.936 388.608C324.35 387.077 326.223 386.215 328.176 386.198C329.118 386.185 330.052 386.392 330.92 386.806C331.789 387.22 332.574 387.833 333.226 388.606C333.878 389.378 334.384 390.295 334.713 391.299C335.041 392.303 335.185 393.373 335.135 394.443Z" fill="#263238"/>
<path d="M264.476 533.904C264.36 536.119 263.51 538.201 262.098 539.731C260.685 541.261 258.815 542.126 256.864 542.15C255.924 542.158 254.991 541.948 254.124 541.533C253.257 541.117 252.474 540.505 251.822 539.733C251.171 538.961 250.665 538.046 250.335 537.043C250.005 536.041 249.859 534.973 249.905 533.904C250.015 531.687 250.864 529.601 252.277 528.069C253.691 526.538 255.565 525.676 257.517 525.658C258.458 525.649 259.39 525.859 260.257 526.275C261.124 526.69 261.907 527.303 262.559 528.075C263.211 528.847 263.717 529.762 264.046 530.764C264.376 531.767 264.522 532.835 264.476 533.904Z" fill="#263238"/>
<path d="M297.05 533.904C296.94 536.116 296.095 538.199 294.687 539.729C293.278 541.26 291.411 542.125 289.463 542.15C288.521 542.162 287.587 541.955 286.718 541.541C285.849 541.127 285.065 540.514 284.412 539.742C283.76 538.969 283.254 538.052 282.926 537.048C282.597 536.044 282.454 534.974 282.503 533.904C282.614 531.687 283.462 529.601 284.876 528.069C286.289 526.538 288.163 525.676 290.115 525.658C291.055 525.649 291.986 525.859 292.852 526.275C293.718 526.691 294.5 527.304 295.149 528.076C295.799 528.849 296.303 529.764 296.63 530.766C296.957 531.769 297.1 532.836 297.05 533.904Z" fill="#263238"/>
<path d="M329.722 533.904C329.611 536.121 328.763 538.207 327.349 539.739C325.935 541.27 324.062 542.132 322.11 542.15C321.17 542.155 320.239 541.942 319.374 541.525C318.508 541.108 317.726 540.496 317.075 539.724C316.425 538.953 315.918 538.04 315.587 537.039C315.256 536.039 315.108 534.972 315.15 533.904C315.266 531.689 316.116 529.607 317.529 528.077C318.941 526.547 320.812 525.682 322.762 525.659C323.704 525.646 324.638 525.853 325.507 526.267C326.375 526.681 327.16 527.294 327.812 528.066C328.465 528.839 328.971 529.756 329.299 530.76C329.627 531.764 329.771 532.834 329.722 533.904Z" fill="#263238"/>
<path d="M362.248 533.904C362.132 536.119 361.282 538.201 359.869 539.731C358.457 541.261 356.587 542.126 354.636 542.15C353.696 542.154 352.766 541.942 351.9 541.525C351.035 541.108 350.253 540.495 349.602 539.724C348.951 538.953 348.445 538.039 348.114 537.039C347.783 536.038 347.634 534.972 347.677 533.904C347.793 531.689 348.643 529.607 350.055 528.076C351.468 526.546 353.338 525.682 355.289 525.658C356.229 525.649 357.162 525.859 358.029 526.275C358.896 526.69 359.679 527.303 360.331 528.075C360.982 528.847 361.489 529.762 361.818 530.764C362.148 531.767 362.294 532.835 362.248 533.904Z" fill="#263238"/>
<path d="M394.965 533.904C394.849 536.119 393.999 538.201 392.587 539.731C391.174 541.261 389.304 542.126 387.353 542.15C386.412 542.162 385.478 541.955 384.609 541.541C383.74 541.127 382.956 540.514 382.303 539.742C381.651 538.969 381.145 538.052 380.817 537.048C380.488 536.044 380.344 534.974 380.394 533.904C380.505 531.687 381.353 529.601 382.767 528.069C384.18 526.538 386.054 525.676 388.006 525.658C388.947 525.649 389.879 525.859 390.746 526.275C391.613 526.69 392.397 527.303 393.048 528.075C393.7 528.847 394.206 529.762 394.535 530.764C394.865 531.767 395.011 532.835 394.965 533.904Z" fill="#263238"/>
<path d="M390.021 198.021C400.135 186.771 400.671 168.738 391.219 157.744C381.767 146.75 365.905 146.958 355.791 158.208C345.677 169.457 345.14 187.49 354.593 198.484C364.045 209.478 379.906 209.271 390.021 198.021Z" fill="#6674BB"/>
<path d="M420.435 243.052C414.415 252.024 406.667 259.307 397.786 264.343C388.906 269.379 379.129 272.034 369.207 272.104C359.584 272.197 350.09 269.596 341.561 264.529C333.031 259.463 325.729 252.087 320.298 243.052C332.042 229.749 350.624 221.064 371.212 221.064C391.8 221.064 409.731 229.749 420.435 243.052Z" fill="#6674BB"/>
<path opacity="0.1" d="M390.021 198.021C400.135 186.771 400.671 168.738 391.219 157.744C381.767 146.75 365.905 146.958 355.791 158.208C345.677 169.457 345.14 187.49 354.593 198.484C364.045 209.478 379.906 209.271 390.021 198.021Z" fill="white"/>
<path opacity="0.1" d="M420.435 243.052C414.415 252.024 406.667 259.307 397.786 264.343C388.906 269.379 379.129 272.034 369.207 272.104C359.584 272.197 350.09 269.596 341.561 264.529C333.031 259.463 325.729 252.087 320.298 243.052C332.042 229.749 350.624 221.064 371.212 221.064C391.8 221.064 409.731 229.749 420.435 243.052Z" fill="white"/>
<path d="M64.9043 432.731C62.6087 438.448 60.1922 444.742 58.0899 450.844C55.9876 456.946 53.837 463.24 51.9763 469.506C48.1772 481.857 45.2837 494.543 43.3254 507.436L42.7938 511.477C42.7431 512.17 42.8003 512.868 42.9629 513.538C43.5332 515.816 44.4314 517.971 45.621 519.915C48.7243 524.947 52.3241 529.558 56.3501 533.658C60.5948 538.148 65.0474 542.378 69.6889 546.328C74.3285 550.396 79.2098 554.354 84.0185 558.092L79.4997 567.74C68.0172 562.049 57.1183 554.943 46.9984 546.548C41.5994 542.07 36.7269 536.823 32.4997 530.937C29.994 527.432 28.0401 523.462 26.7244 519.2C25.9593 516.538 25.5679 513.755 25.5645 510.955C25.5645 510.295 25.5645 509.333 25.5645 508.866V507.519L25.8061 504.77C27.1914 490.45 29.8387 476.325 33.7079 462.608C35.5927 455.846 37.5984 449.112 39.894 442.543C42.1897 435.974 44.5578 429.543 47.4817 422.864L64.9043 432.731Z" fill="#E58A7B"/>
<path d="M80.6115 556.387L97.6959 546.548L93.2737 567.876C93.2737 567.876 81.554 571.614 76.1169 565.128L80.6115 556.387Z" fill="#E58A7B"/>
<path d="M113.33 550.038L108.787 567.684L93.2729 567.876L97.6951 546.548L113.33 550.038Z" fill="#E58A7B"/>
<path d="M137.446 329.824C138.36 333.633 139.632 337.319 141.24 340.818C140.771 341.424 140.165 341.875 139.489 342.121C138.813 342.368 138.09 342.402 137.398 342.22L137.446 329.824Z" fill="#DF5753"/>
<path d="M136.939 329.989C137.94 329.989 138.752 328.574 138.752 326.828C138.752 325.082 137.94 323.667 136.939 323.667C135.938 323.667 135.127 325.082 135.127 326.828C135.127 328.574 135.938 329.989 136.939 329.989Z" fill="#263238"/>
<path d="M136.407 323.778L140.08 322.596C140.08 322.596 138.292 325.839 136.407 323.778Z" fill="#263238"/>
<path d="M90.2532 349.999C92.4522 362.78 94.6512 386.225 86.7736 394.773C86.7736 394.773 89.8666 407.746 110.769 407.746C133.749 407.746 121.74 394.773 121.74 394.773C109.198 391.365 109.512 380.783 111.711 370.833L90.2532 349.999Z" fill="#E58A7B"/>
<path d="M84.1397 320.864C85.2996 342.22 85.3962 351.29 94.8687 362.257C109.15 378.748 131.961 372.482 136.432 351.263C140.467 332.023 137.906 300.36 119.517 291.867C115.48 289.975 111.086 289.286 106.75 289.865C102.414 290.444 98.28 292.271 94.7382 295.175C91.1964 298.078 88.3642 301.96 86.5096 306.456C84.655 310.951 83.8393 315.91 84.1397 320.864Z" fill="#E58A7B"/>
<path d="M86.0007 296.843C76.5765 300.746 64.011 297.832 68.9405 330.897C74.1601 365.914 66.1375 377.43 66.1375 377.43C66.1375 377.43 101.877 386.088 138.365 376.908C138.365 376.908 127.225 354.755 130.343 338.428C134.33 317.814 131.188 310.201 131.188 310.201C131.188 310.201 99.2429 291.346 86.0007 296.843Z" fill="#263238"/>
<path d="M125.871 331.996C125.881 336.057 126.904 340.032 128.82 343.458C131.381 347.911 134.402 346.207 135.151 341.479C135.827 337.329 135.32 329.99 132.058 327.132C128.795 324.273 125.92 327.077 125.871 331.996Z" fill="#E58A7B"/>
<path d="M77.8086 300.443C75.1022 291.785 88.0061 278.455 115.312 283.952C142.618 289.449 143.802 315.313 143.802 315.313L138.292 307.837L138.534 315.698L110.479 321.827L77.8086 300.443Z" fill="#263238"/>
<path d="M80.1272 396.229C79.966 394.974 80.2421 393.697 80.8966 392.671C81.5511 391.644 82.5323 390.948 83.6311 390.732C92.137 389.138 111.469 385.895 121.183 387.434C128.432 388.588 130.317 393.371 130.631 397.301C130.68 397.989 130.599 398.682 130.394 399.331C130.188 399.981 129.863 400.573 129.439 401.068C129.016 401.563 128.504 401.948 127.939 402.2C127.373 402.451 126.767 402.561 126.161 402.524L84.1627 400.38C83.1726 400.323 82.2301 399.879 81.4948 399.122C80.7594 398.366 80.2763 397.344 80.1272 396.229Z" fill="#6674BB"/>
<path opacity="0.6" d="M80.1272 396.229C79.966 394.974 80.2421 393.697 80.8966 392.671C81.5511 391.644 82.5323 390.948 83.6311 390.732C92.137 389.138 111.469 385.895 121.183 387.434C128.432 388.588 130.317 393.371 130.631 397.301C130.68 397.989 130.599 398.682 130.394 399.331C130.188 399.981 129.863 400.573 129.439 401.068C129.016 401.563 128.504 401.948 127.939 402.2C127.373 402.451 126.767 402.561 126.161 402.524L84.1627 400.38C83.1726 400.323 82.2301 399.879 81.4948 399.122C80.7594 398.366 80.2763 397.344 80.1272 396.229Z" fill="black"/>
<path d="M104.412 876.402L119.999 888.715L146.072 848.504L130.486 836.218L104.412 876.402Z" fill="#E58A7B"/>
<path d="M68.0709 875.604L84.527 886.268L107.604 843.748L91.1481 833.083L68.0709 875.604Z" fill="#E58A7B"/>
<path d="M146.049 848.504L132.613 869.228L117.027 856.942L130.463 836.218L146.049 848.504Z" fill="#CF6F64"/>
<path d="M91.1226 833.083L107.603 843.775L95.7139 865.681L79.2336 854.989L91.1226 833.083Z" fill="#CF6F64"/>
<path d="M117.559 530.469C117.559 530.469 178.405 617.681 166.976 701.099C157.769 768.466 104.365 859.691 104.365 859.691L79.2584 845.508C96.9552 805.174 112.057 763.433 124.446 720.614C128.266 707.32 129.381 693.213 127.707 679.357C126.033 665.502 121.612 652.26 114.78 640.631C83.9463 589.426 34.554 619.907 67.7802 530.469H117.559Z" fill="#6674BB"/>
<path opacity="0.6" d="M117.559 530.469C117.559 530.469 178.405 617.681 166.976 701.099C157.769 768.466 104.365 859.691 104.365 859.691L79.2584 845.508C96.9552 805.174 112.057 763.433 124.446 720.614C128.266 707.32 129.381 693.213 127.707 679.357C126.033 665.502 121.612 652.26 114.78 640.631C83.9463 589.426 34.554 619.907 67.7802 530.469H117.559Z" fill="black"/>
<path opacity="0.4" d="M147.403 586.484L138.558 576.479C138.558 577.277 155.691 697.581 160.5 731.388C163.338 721.512 165.511 711.405 167 701.154C172.655 660.228 160.838 618.422 147.403 586.484Z" fill="black"/>
<path d="M144.72 530.469C144.72 530.469 217.987 640.082 220.065 705.8C221.781 760.771 140.322 867.277 140.322 867.277L116.641 849.851C116.641 849.851 164.317 774.211 176.327 712.424C171.688 651.186 73.5795 530.469 73.5795 530.469H144.72Z" fill="#6674BB"/>
<path opacity="0.6" d="M144.72 530.469C144.72 530.469 217.987 640.082 220.065 705.8C221.781 760.771 140.322 867.277 140.322 867.277L116.641 849.851C116.641 849.851 164.317 774.211 176.327 712.424C171.688 651.186 73.5795 530.469 73.5795 530.469H144.72Z" fill="black"/>
<path d="M54.0776 399.665C46.2483 401.781 38.7332 434.159 38.7332 434.159L69.3496 457.412C69.3496 457.412 79.5471 431.795 75.9707 420.581C72.2735 408.9 63.9126 396.998 54.0776 399.665Z" fill="#6674BB"/>
<path opacity="0.2" d="M60.0714 420.526L57.9449 448.754L69.3265 457.439C72.4691 449.392 74.7958 440.964 76.2617 432.317L60.0714 420.526Z" fill="black"/>
<path d="M153.782 400.297C153.782 400.297 162.819 403.898 144.72 530.441H67.7318C69.0367 494.71 69.0609 472.721 54.0789 399.665C64.8589 397.138 75.7857 395.503 86.7735 394.773C98.4139 393.823 110.099 393.823 121.74 394.773C136.77 396.339 153.782 400.297 153.782 400.297Z" fill="#6674BB"/>
<path d="M161.609 420.527C163.349 426.025 165.186 431.934 167.119 437.623C169.052 443.313 170.888 449.167 172.846 454.939L178.766 472.2L180.264 476.515L181.038 478.659L181.4 479.731C181.4 479.924 181.4 479.924 181.4 479.896C180.959 479.188 180.38 478.605 179.709 478.192C178.753 477.552 177.675 477.184 176.567 477.12C175.647 477.087 174.731 477.285 173.885 477.697C172.773 478.275 172.773 478.522 172.797 478.494C172.998 478.311 173.177 478.099 173.329 477.862C174.667 475.865 175.824 473.719 176.785 471.458C177.92 468.929 179.008 466.236 180.095 463.515C182.222 458.018 184.179 452.328 186.136 446.584C188.094 440.839 189.954 435.04 191.767 429.185L197.276 411.65L206.58 414.398C204.743 426.932 202.375 439.135 199.523 451.559C198.146 457.743 196.527 463.872 194.691 470.056C193.772 473.162 192.757 476.241 191.597 479.401C190.389 482.832 188.9 486.126 187.151 489.241C186.509 490.29 185.798 491.282 185.025 492.21C183.791 493.726 182.293 494.933 180.627 495.755C179.148 496.477 177.547 496.815 175.939 496.745C174.138 496.668 172.383 496.073 170.84 495.013C169.02 493.721 167.509 491.936 166.442 489.818C166.08 489.104 165.766 488.389 165.548 487.867L165.089 486.823L164.171 484.679L162.334 480.418C159.918 474.701 157.501 468.929 155.399 463.13C153.297 457.331 151.074 451.449 148.995 445.539C146.917 439.63 145.057 433.72 143.293 427.344L161.609 420.527Z" fill="#E58A7B"/>
<path d="M153.782 400.297C163.037 402.798 173.452 433.911 173.452 433.911L145.928 460.545C145.928 460.545 128.119 426.628 131.719 415.441C135.465 403.787 141.699 397.026 153.782 400.297Z" fill="#6674BB"/>
<path d="M201.65 401.809L211.316 392.629L218.033 404.53L213.08 414.453C213.08 414.453 205.202 422.698 198.243 418.493C197.138 415.669 196.873 412.512 197.488 409.502C198.103 406.491 199.564 403.79 201.65 401.809Z" fill="#E58A7B"/>
<path d="M228.763 392.657L228.038 395.653L212.742 398.566L211.244 392.629L228.763 392.657Z" fill="#E58A7B"/>
<path d="M142.206 868.677L114.61 848.393L119.564 838.608L150.567 860.294L142.206 868.677Z" fill="#6674BB"/>
<path d="M95.3271 884.839C92.9059 884.503 90.5794 883.565 88.5127 882.091C88.4274 882.057 88.3535 881.994 88.3012 881.91C88.2488 881.827 88.2207 881.726 88.2207 881.624C88.2207 881.521 88.2488 881.421 88.3012 881.337C88.3535 881.253 88.4274 881.19 88.5127 881.156C89.2618 880.882 95.7621 878.6 97.6469 880.359C97.8588 880.56 98.0197 880.821 98.1132 881.115C98.2067 881.41 98.2292 881.728 98.1785 882.036C98.1449 882.531 98.0008 883.008 97.7598 883.421C97.5187 883.835 97.1887 884.172 96.8012 884.4C96.3486 884.681 95.8426 884.832 95.3271 884.839ZM89.8901 881.816C92.9107 883.575 95.3271 884.207 96.487 883.548C96.7396 883.388 96.9521 883.158 97.1044 882.879C97.2567 882.6 97.3436 882.282 97.3569 881.954C97.3569 881.514 97.3569 881.321 97.1395 881.211C96.1245 880.277 92.4999 880.991 89.8418 881.816H89.8901Z" fill="#263238"/>
<path d="M88.682 882.284C88.5546 882.282 88.433 882.222 88.3437 882.119C88.3078 882.043 88.2889 881.958 88.2889 881.871C88.2889 881.785 88.3078 881.7 88.3437 881.624C88.3437 881.377 89.9144 875.412 92.3792 874.065C92.694 873.902 93.036 873.818 93.3821 873.818C93.7281 873.818 94.07 873.902 94.3849 874.065C94.7242 874.187 95.018 874.435 95.2194 874.769C95.4208 875.102 95.5184 875.503 95.4965 875.907C95.3273 878.381 90.9052 881.789 88.8754 882.366L88.682 882.284ZM93.37 874.78C93.1349 874.788 92.9042 874.854 92.6934 874.972C91.1952 875.797 89.9628 879.013 89.3586 880.964C91.4851 879.947 94.409 877.254 94.5057 875.742C94.5057 875.495 94.5057 875.192 93.9499 874.918C93.7691 874.807 93.5729 874.732 93.37 874.698V874.78Z" fill="#263238"/>
<path d="M129.809 896.713C127.079 896.713 123.285 892.728 121.207 890.282C121.154 890.198 121.125 890.097 121.125 889.993C121.125 889.89 121.154 889.789 121.207 889.705C121.255 889.616 121.322 889.544 121.403 889.495C121.484 889.447 121.575 889.424 121.666 889.43C122.633 889.43 131.018 890.859 132.202 893.553C132.327 893.794 132.393 894.069 132.393 894.35C132.393 894.63 132.327 894.905 132.202 895.147C132.024 895.566 131.756 895.927 131.422 896.197C131.088 896.466 130.7 896.634 130.293 896.686L129.809 896.713ZM122.802 890.667C125.846 894.02 128.529 895.889 130.051 895.669C130.318 895.629 130.572 895.516 130.791 895.339C131.01 895.161 131.187 894.925 131.308 894.652C131.362 894.558 131.391 894.448 131.391 894.336C131.391 894.224 131.362 894.114 131.308 894.02C130.679 892.536 126.209 891.271 122.802 890.667Z" fill="#263238"/>
<path d="M123.068 890.53C122.526 890.547 121.983 890.501 121.449 890.392C121.375 890.38 121.304 890.345 121.245 890.292C121.186 890.239 121.14 890.169 121.111 890.09C121.075 890.009 121.056 889.92 121.056 889.829C121.056 889.738 121.075 889.649 121.111 889.568C121.256 889.375 124.518 884.895 127.611 884.593C128.487 884.515 129.354 884.831 130.028 885.472C130.97 886.407 130.922 887.231 130.68 887.754C130.076 889.623 125.896 890.53 123.068 890.53ZM122.44 889.513C125.147 889.678 129.472 888.661 130.028 887.314C130.028 887.314 130.221 886.874 129.593 886.269C129.343 886.022 129.051 885.836 128.735 885.722C128.419 885.609 128.086 885.571 127.756 885.61C125.673 886.271 123.817 887.643 122.44 889.54V889.513Z" fill="#263238"/>
<path d="M89.3343 879.316L68.8427 872.719C68.4895 872.597 68.1093 872.628 67.7748 872.806C67.4404 872.983 67.1753 873.295 67.0304 873.681L60.1193 891.354C59.957 891.807 59.8809 892.293 59.8957 892.782C59.9106 893.27 60.0163 893.75 60.2057 894.189C60.3952 894.627 60.6641 895.016 60.9949 895.328C61.3257 895.64 61.7109 895.869 62.125 895.999C69.3744 898.143 72.8541 898.748 81.8674 901.689C87.4253 903.448 95.3512 906.719 103.011 909.192C110.672 911.666 113.233 903.173 110.261 901.359C96.8253 893.278 95.7621 887.616 92.0891 881.569C91.4312 880.474 90.4563 879.677 89.3343 879.316Z" fill="#6674BB"/>
<path d="M121.762 887.066L104.267 873.323C103.97 873.077 103.605 872.964 103.24 873.005C102.874 873.045 102.535 873.237 102.286 873.543L90.6866 887.726C90.4039 888.092 90.1931 888.523 90.0681 888.989C89.9431 889.456 89.9069 889.947 89.9617 890.431C90.0166 890.914 90.1613 891.379 90.3863 891.794C90.6112 892.209 90.9113 892.565 91.2665 892.838C97.4285 897.538 100.618 899.435 108.327 905.509C113.16 909.247 122.511 917.547 129.036 922.715C135.56 927.882 140.417 920.791 138.097 917.987C127.707 905.371 125.435 897.456 123.719 890.282C123.422 888.98 122.728 887.841 121.762 887.066Z" fill="#6674BB"/>
<path d="M107.579 861.505L76.0444 843.667L79.3066 833.937L112.992 852.737L107.579 861.505Z" fill="#6674BB"/>
<path d="M66.5716 525.301L63.9134 533.217C63.6476 533.821 64.2759 534.454 65.17 534.454H145.106C145.807 534.454 146.387 534.069 146.435 533.574L147.112 525.713C147.112 525.191 146.556 524.724 145.807 524.724H67.8281C67.5933 524.699 67.3567 524.738 67.1381 524.838C66.9194 524.939 66.7251 525.097 66.5716 525.301Z" fill="#6674BB"/>
<path opacity="0.4" d="M66.5716 525.301L63.9134 533.217C63.6476 533.821 64.2759 534.454 65.17 534.454H145.106C145.807 534.454 146.387 534.069 146.435 533.574L147.112 525.713C147.112 525.191 146.556 524.724 145.807 524.724H67.8281C67.5933 524.699 67.3567 524.738 67.1381 524.838C66.9194 524.939 66.7251 525.097 66.5716 525.301Z" fill="white"/>
<path d="M79.1605 535.225H77.0582C76.6474 535.225 76.3332 534.977 76.3574 534.675L77.3481 524.478C77.3481 524.203 77.7348 523.956 78.1456 523.956H80.2479C80.6587 523.956 80.9728 524.203 80.9487 524.478L79.9579 534.675C79.9337 534.977 79.5713 535.225 79.1605 535.225Z" fill="#6674BB"/>
<path d="M128.456 535.225H126.378C125.967 535.225 125.653 534.977 125.677 534.675L126.644 524.478C126.644 524.203 127.054 523.956 127.465 523.956H129.543C129.954 523.956 130.292 524.203 130.244 524.478L129.277 534.675C129.157 534.977 128.891 535.225 128.456 535.225Z" fill="#6674BB"/>
<g style="mix-blend-mode:multiply">
<path d="M77.3249 1000.69C113.078 1000.69 142.062 998.304 142.062 995.36C142.062 992.415 113.078 990.027 77.3249 990.027C41.5718 990.027 12.5881 992.415 12.5881 995.36C12.5881 998.304 41.5718 1000.69 77.3249 1000.69Z" fill="#F5F5F5"/>
</g>
<path d="M116.76 987.829C105.306 984.036 92.5958 979.171 84.9115 974.086C84.694 973.921 84.4524 973.839 84.2349 973.701V914.717H107.409C109.168 914.599 110.821 913.721 112.029 912.262C113.238 910.803 113.911 908.875 113.911 906.87C113.911 904.866 113.238 902.937 112.029 901.479C110.821 900.02 109.168 899.142 107.409 899.023H84.3557V630.16H70.4369V899.023H47.4081C46.4678 898.96 45.526 899.116 44.6406 899.482C43.7552 899.847 42.9449 900.415 42.2594 901.15C41.5739 901.885 41.0278 902.771 40.6545 903.755C40.2812 904.739 40.0886 905.799 40.0886 906.87C40.0886 907.942 40.2812 909.002 40.6545 909.986C41.0278 910.969 41.5739 911.856 42.2594 912.591C42.9449 913.326 43.7552 913.893 44.6406 914.259C45.526 914.625 46.4678 914.781 47.4081 914.717H70.4369V973.619C70.2195 973.619 70.002 973.839 69.7845 974.004C61.9793 979.171 49.3655 984.036 37.9115 987.746C37.1377 988.012 36.4734 988.585 36.0386 989.36C35.6038 990.135 35.4274 991.062 35.5413 991.972C35.6552 992.882 36.0519 993.716 36.6596 994.322C37.2672 994.929 38.0456 995.267 38.8539 995.277H115.818C116.59 995.217 117.321 994.858 117.889 994.259C118.456 993.66 118.826 992.858 118.936 991.986C119.047 991.115 118.891 990.227 118.495 989.47C118.099 988.713 117.487 988.134 116.76 987.829Z" fill="#E0E0E0"/>
<path d="M120.313 602.784H34.3838C27.4707 602.784 21.8666 609.158 21.8666 617.021V646.074C21.8666 653.937 27.4707 660.311 34.3838 660.311H120.313C127.226 660.311 132.83 653.937 132.83 646.074V617.021C132.83 609.158 127.226 602.784 120.313 602.784Z" fill="#6674BB"/>
<path d="M33.5865 660.337V665.34C33.5865 669.463 37.5254 672.816 42.3583 672.816H112.435C117.268 672.816 121.207 669.463 121.207 665.34V660.337H33.5865Z" fill="#6674BB"/>
<path opacity="0.3" d="M33.5865 660.337V665.34C33.5865 669.463 37.5254 672.816 42.3583 672.816H112.435C117.268 672.816 121.207 669.463 121.207 665.34V660.337H33.5865Z" fill="white"/>
</svg>
